<?xml version="1.0" encoding="utf-8"?>
<!-- Generator: Adobe Illustrator 16.0.0, SVG Export Plug-In . SVG Version: 6.00 Build 0)  -->
<!DOCTYPE svg PUBLIC "-//W3C//DTD SVG 1.1//EN" "http://www.w3.org/Graphics/SVG/1.1/DTD/svg11.dtd">
<svg version="1.1" id="Capa_1" xmlns="http://www.w3.org/2000/svg" xmlns:xlink="http://www.w3.org/1999/xlink" x="0px" y="0px"
	 width="900px" height="200px" viewBox="0 0 900 200" enable-background="new 0 0 900 200" xml:space="preserve">
<g enable-background="new    ">
	<path fill="#007BFF" d="M57.788,127.749c-2.063,1.905-4.187,3.468-6.372,4.689c-2.187,1.222-4.476,2.145-6.867,2.765
		c-2.393,0.621-4.743,0.932-7.053,0.932c-5.485,0-9.826-1.701-13.022-5.105c-3.197-3.403-4.794-8.076-4.794-14.017
		c0-4.744,1.289-8.664,3.867-11.758c2.577-3.095,6.381-5.766,11.414-8.015c5.031-2.248,12.393-4.898,22.085-7.952v-3.953
		c0-2.677-0.557-4.633-1.67-5.868c-1.113-1.235-2.887-1.854-5.32-1.854c-4.702,0-7.053,2.66-7.053,7.98v2.165H23.577v-15.96
		c2.722-1.443,5.722-2.742,9.001-3.897c3.279-1.154,6.443-2,9.496-2.537c3.052-0.535,6.063-0.804,9.032-0.804
		c6.063,0,10.959,0.813,14.693,2.44c3.732,1.628,6.434,4.131,8.104,7.509c1.67,3.378,2.505,7.827,2.505,13.348v23.049
		c0,3.461,0.268,5.892,0.804,7.292c0.536,1.402,1.794,2.308,3.773,2.72v14.104H57.788V127.749z M57.045,102.445
		c-6.063,2.39-10.362,4.49-12.898,6.302c-2.536,1.813-3.805,4.057-3.805,6.733c0,1.647,0.495,2.986,1.485,4.016
		c0.99,1.03,2.351,1.544,4.083,1.544c3.546,0,7.258-2.244,11.135-6.733V102.445z"/>
	<path fill="#007BFF" d="M129.177,130.072c-6.186,3.135-12.022,4.702-17.507,4.702c-7.836,0-13.486-2.66-16.95-7.98
		c-1.403-2.104-2.289-4.495-2.66-7.177c-0.371-2.68-0.557-6.082-0.557-10.207V89.8c0-5.608,0.659-10.238,1.979-13.889
		c1.319-3.649,3.474-6.392,6.464-8.228c2.99-1.835,6.98-2.753,11.971-2.753c5.402,0,11.156,1.732,17.26,5.196v-4.269h23.57v13.796
		c-1.939,0.618-3.124,1.506-3.557,2.66c-0.433,1.155-0.649,3.217-0.649,6.186v42.748c0,4.907-0.249,8.855-0.744,11.847
		c-0.496,2.989-1.652,5.742-3.468,8.259c-4.584,6.351-12.098,9.526-22.544,9.526c-9.703,0-18.849-2.34-27.436-7.021v-16.316h18.744
		v0.37c0,2.707,0.721,4.81,2.166,6.308c1.443,1.496,3.381,2.245,5.815,2.245c2.928,0,5.011-0.843,6.248-2.526
		c1.237-1.685,1.856-4.294,1.856-7.827V130.072z M129.177,117.02V82.933c-2.764-2.186-5.651-3.278-8.661-3.278
		c-2.351,0-4.176,0.454-5.475,1.36c-1.299,0.908-2.227,2.311-2.784,4.207c-0.557,1.897-0.835,4.311-0.835,7.238v13.177
		c0,4.949,0.608,8.548,1.825,10.795c1.216,2.248,3.434,3.371,6.65,3.371C122.496,119.803,125.589,118.875,129.177,117.02z"/>
	<path fill="#007BFF" d="M183.802,110.503c0,3.985,0.628,6.894,1.887,8.723c1.257,1.828,3.412,2.743,6.464,2.743
		c5.568,0,8.352-3.288,8.352-9.862v-0.37h19.116v16.418c-8.157,5.32-17.302,7.98-27.436,7.98c-6.633,0-11.979-0.856-16.036-2.567
		c-4.058-1.711-7.045-4.351-8.96-7.918c-1.916-3.567-2.873-8.259-2.873-14.074V89.305c0-5.773,0.947-10.476,2.842-14.104
		s4.903-6.311,9.022-8.042c4.12-1.732,9.455-2.599,16.005-2.599c9.68,0,16.673,1.983,20.978,5.948s6.458,10.244,6.458,18.836v15.18
		h-35.819V110.503z M183.802,90.303v1.909h16.703v-2.771c0-3.654-0.671-6.353-2.01-8.098c-1.341-1.745-3.455-2.617-6.341-2.617
		c-3.011,0-5.156,0.924-6.434,2.771C184.441,83.346,183.802,86.28,183.802,90.303z"/>
	<path fill="#007BFF" d="M254.203,111.575c0,3.135,0.257,5.352,0.773,6.65c0.515,1.299,1.701,2.218,3.557,2.753v14.043h-27.9
		v-14.043c1.773-0.288,2.938-1.195,3.495-2.722c0.557-1.525,0.835-4.124,0.835-7.795V88.5c0-2.886-0.238-4.907-0.711-6.063
		c-0.475-1.153-1.681-2.082-3.619-2.783V65.858h23.57v4.269c5.32-3.093,10.517-4.64,15.589-4.64c7.753,0,13.156,1.918,16.208,5.753
		c3.052,3.836,4.578,10.022,4.578,18.56v21.528c0,3.547,0.288,6.011,0.866,7.393c0.577,1.382,1.814,2.134,3.711,2.258v14.043
		h-21.961c-0.866-2.392-1.413-5.237-1.639-8.537c-0.227-3.299-0.34-7.424-0.34-12.373V92.46c0-4.454-0.649-7.702-1.949-9.744
		c-1.299-2.041-3.578-3.062-6.836-3.062c-2.722,0-5.465,1.093-8.228,3.278V111.575z"/>
	<path fill="#007BFF" d="M305.611,111.08V88.748c0-2.97,0.133-5.547,0.402-7.733c0.268-2.186,0.855-4.206,1.763-6.063
		c1.567-3.175,3.887-5.588,6.959-7.237c3.072-1.649,6.836-2.475,11.29-2.475c5.402,0,11.156,1.553,17.26,4.659v-5.572
		c0-3.136-0.269-5.364-0.804-6.685c-0.537-1.32-1.712-2.208-3.526-2.662V40.866h23.694v71.396c0,2.968,0.216,5.019,0.649,6.151
		s1.618,2.05,3.557,2.75v13.857h-23.57v-4.352c-5.733,3.396-11.486,5.094-17.26,5.094c-4.949,0-8.93-0.906-11.939-2.722
		c-3.011-1.814-5.176-4.517-6.496-8.104C306.27,121.35,305.611,116.731,305.611,111.08z M325.531,108.397
		c0,2.919,0.278,5.325,0.835,7.216c0.557,1.892,1.485,3.289,2.784,4.193c1.299,0.905,3.124,1.357,5.475,1.357
		c2.928,0,5.815-1.089,8.661-3.269V82.863c-3.547-1.768-6.641-2.652-9.279-2.652c-3.259,0-5.486,1.121-6.681,3.361
		c-1.197,2.241-1.794,5.85-1.794,10.824V108.397z"/>
	<path fill="#007BFF" d="M415.356,127.749c-2.063,1.905-4.187,3.468-6.372,4.689c-2.187,1.222-4.476,2.145-6.867,2.765
		c-2.393,0.621-4.743,0.932-7.053,0.932c-5.485,0-9.826-1.701-13.022-5.105c-3.197-3.403-4.794-8.076-4.794-14.017
		c0-4.744,1.289-8.664,3.867-11.758c2.577-3.095,6.381-5.766,11.414-8.015c5.031-2.248,12.393-4.898,22.085-7.952v-3.953
		c0-2.677-0.557-4.633-1.67-5.868c-1.113-1.235-2.887-1.854-5.32-1.854c-4.702,0-7.053,2.66-7.053,7.98v2.165h-19.425v-15.96
		c2.722-1.443,5.722-2.742,9.001-3.897c3.279-1.154,6.443-2,9.496-2.537c3.052-0.535,6.063-0.804,9.032-0.804
		c6.063,0,10.959,0.813,14.693,2.44c3.732,1.628,6.434,4.131,8.104,7.509c1.67,3.378,2.505,7.827,2.505,13.348v23.049
		c0,3.461,0.268,5.892,0.804,7.292c0.536,1.402,1.794,2.308,3.773,2.72v14.104h-23.198V127.749z M414.613,102.445
		c-6.063,2.39-10.362,4.49-12.898,6.302c-2.536,1.813-3.805,4.057-3.805,6.733c0,1.647,0.495,2.986,1.485,4.016
		c0.99,1.03,2.351,1.544,4.083,1.544c3.546,0,7.258-2.244,11.135-6.733V102.445z"/>
	<path fill="#007BFF" d="M542.969,72.416c6.229-4.618,12.83-6.929,19.802-6.929c7.178,0,12.241,1.949,15.191,5.846
		c2.949,3.897,4.424,10.054,4.424,18.467v21.652c0,3.382,0.299,5.784,0.897,7.207c0.597,1.423,1.825,2.195,3.681,2.319v14.043
		h-21.775c-0.866-2.268-1.403-4.907-1.608-7.919c-0.207-3.01-0.31-7.34-0.31-12.991V92.46c0-2.805-0.269-5.176-0.805-7.114
		s-1.423-3.372-2.66-4.3s-2.949-1.392-5.135-1.392c-2.516,0-5.3,1.093-8.352,3.278v28.52c0,3.382,0.279,5.784,0.836,7.207
		s1.783,2.195,3.681,2.319v14.043h-21.707c-0.911-2.392-1.48-5.206-1.707-8.444c-0.229-3.237-0.342-7.393-0.342-12.466V92.46
		c0-2.805-0.268-5.176-0.801-7.114c-0.535-1.938-1.407-3.372-2.62-4.3c-1.212-0.928-2.928-1.392-5.146-1.392
		c-2.631,0-5.321,1.093-8.074,3.278v28.643c0,3.217,0.235,5.455,0.708,6.712c0.473,1.259,1.634,2.156,3.483,2.691v14.043h-27.514
		v-14.043c1.814-0.329,2.969-1.216,3.464-2.66c0.495-1.443,0.742-4.062,0.742-7.856V87.758c0-2.598-0.227-4.423-0.68-5.475
		c-0.455-1.052-1.63-1.928-3.526-2.629V65.858h23.322v4.269c5.318-3.093,10.431-4.64,15.337-4.64
		C533.362,65.487,539.093,67.798,542.969,72.416z"/>
	<path fill="#007BFF" d="M620.927,111.575c0,3.217,0.236,5.455,0.711,6.712c0.474,1.259,1.64,2.156,3.495,2.691v14.043h-27.9
		v-14.043c1.773-0.288,2.938-1.195,3.496-2.722c0.557-1.525,0.835-4.124,0.835-7.795V88.5c0-2.886-0.238-4.907-0.712-6.063
		c-0.475-1.153-1.681-2.082-3.619-2.783V65.858h23.694V111.575z M602.43,51.383v-0.124c0-2.104,0.711-3.918,2.134-5.443
		s3.206-2.289,5.352-2.289c2.144,0,3.969,0.753,5.475,2.258c1.505,1.506,2.258,3.331,2.258,5.475c0,2.146-0.753,3.97-2.258,5.475
		c-1.506,1.507-3.289,2.259-5.352,2.259c-1.32,0-2.577-0.361-3.773-1.083c-1.196-0.721-2.134-1.649-2.814-2.784
		C602.77,53.991,602.43,52.743,602.43,51.383z"/>
	<path fill="#007BFF" d="M659.714,111.575c0,3.135,0.258,5.352,0.773,6.65s1.701,2.218,3.558,2.753v14.043h-27.9v-14.043
		c1.772-0.288,2.938-1.195,3.495-2.722c0.557-1.525,0.835-4.124,0.835-7.795V88.5c0-2.886-0.237-4.907-0.711-6.063
		c-0.475-1.153-1.681-2.082-3.619-2.783V65.858h23.569v4.269c5.32-3.093,10.518-4.64,15.59-4.64c7.753,0,13.155,1.918,16.208,5.753
		c3.052,3.836,4.578,10.022,4.578,18.56v21.528c0,3.547,0.288,6.011,0.866,7.393c0.577,1.382,1.814,2.134,3.712,2.258v14.043
		h-21.962c-0.866-2.392-1.413-5.237-1.639-8.537c-0.228-3.299-0.341-7.424-0.341-12.373V92.46c0-4.454-0.649-7.702-1.948-9.744
		c-1.3-2.041-3.579-3.062-6.836-3.062c-2.723,0-5.466,1.093-8.229,3.278V111.575z"/>
	<path fill="#007BFF" d="M730.672,110.503c0,3.985,0.628,6.894,1.887,8.723c1.258,1.828,3.412,2.743,6.465,2.743
		c5.567,0,8.352-3.288,8.352-9.862v-0.37h19.115v16.418c-8.157,5.32-17.303,7.98-27.437,7.98c-6.633,0-11.978-0.856-16.036-2.567
		c-4.058-1.711-7.044-4.351-8.96-7.918s-2.873-8.259-2.873-14.074V89.305c0-5.773,0.947-10.476,2.842-14.104
		s4.902-6.311,9.022-8.042c4.12-1.732,9.454-2.599,16.005-2.599c9.681,0,16.673,1.983,20.979,5.948s6.458,10.244,6.458,18.836v15.18
		h-35.818V110.503z M730.672,90.303v1.909h16.703v-2.771c0-3.654-0.671-6.353-2.011-8.098c-1.341-1.745-3.455-2.617-6.341-2.617
		c-3.012,0-5.156,0.924-6.435,2.771C731.311,83.346,730.672,86.28,730.672,90.303z"/>
	<path fill="#007BFF" d="M801.071,111.605c0,3.13,0.258,5.345,0.773,6.642s1.701,2.214,3.558,2.749v14.025h-27.9v-14.032
		c1.772-0.288,2.938-1.193,3.495-2.719s0.835-4.122,0.835-7.789V88.536c0-2.884-0.237-4.903-0.711-6.058
		c-0.475-1.154-1.681-2.081-3.619-2.782V65.858h22.704v5.71c2.762-3.971,6.474-5.957,11.135-5.957c0.619,0,1.587,0.083,2.908,0.247
		v20.291c-1.65-0.164-2.702-0.247-3.155-0.247c-3.548,0-6.104,1.102-7.671,3.306c-1.568,2.204-2.352,5.633-2.352,10.287V111.605z"/>
	<path fill="#007BFF" d="M859.099,127.749c-2.063,1.905-4.187,3.468-6.372,4.689c-2.187,1.222-4.475,2.145-6.866,2.765
		c-2.393,0.621-4.743,0.932-7.053,0.932c-5.485,0-9.826-1.701-13.022-5.105c-3.196-3.403-4.794-8.076-4.794-14.017
		c0-4.744,1.288-8.664,3.866-11.758c2.577-3.095,6.382-5.766,11.414-8.015c5.031-2.248,12.393-4.898,22.085-7.952v-3.953
		c0-2.677-0.557-4.633-1.67-5.868c-1.114-1.235-2.888-1.854-5.32-1.854c-4.702,0-7.053,2.66-7.053,7.98v2.165h-19.425v-15.96
		c2.722-1.443,5.723-2.742,9.001-3.897c3.278-1.154,6.443-2,9.496-2.537c3.052-0.535,6.063-0.804,9.032-0.804
		c6.063,0,10.959,0.813,14.692,2.44c3.731,1.628,6.434,4.131,8.104,7.509c1.671,3.378,2.506,7.827,2.506,13.348v23.049
		c0,3.461,0.268,5.892,0.804,7.292c0.536,1.402,1.795,2.308,3.774,2.72v14.104h-23.199V127.749z M858.356,102.445
		c-6.063,2.39-10.362,4.49-12.898,6.302c-2.536,1.813-3.805,4.057-3.805,6.733c0,1.647,0.495,2.986,1.485,4.016
		c0.989,1.03,2.351,1.544,4.082,1.544c3.547,0,7.259-2.244,11.136-6.733V102.445z"/>
</g>
</svg>
